{"title":"Te.rongyos.elet.1984.DVDRip.XviD.5rFF","uid":11353581,"size":1479290329,"categoryP":"video","categoryS":"movies","magnet":"?xt=urn:btih:b4587400f308c197e2fbe99100ef61f76da6867e&amp;dn=Te.rongyos.elet.1984.DVDRip.XviD.5rFF&amp;tr=udp%3A%2F%2Ftracker.openbittorrent.com%3A80&amp;tr=udp%3A%2F%2Fopen.demonii.com%3A1337&amp;tr=udp%3A%2F%2Ftracker.coppersurfer.tk%3A6969&amp;tr=udp%3A%2F%2Fexodus.desync.com%3A6969","seeders":1,"leechers":0,"uploader":"app1985","files":-1,"time":1414919410,"description":"[emule]\n\n\n\ned2k://|file|Te.rongyos.elet.1984.DVDRip.XviD.5rFF.avi|1467998208|BE0CB658553CF79DF7018EBA96F1CE36|/\n &lt;a href=&quot;\nhttp://www.imdb.com/title/tt0086421/&quot; rel=&quot;nofollow&quot; target=&quot;_NEW&quot;&gt;\nhttp://www.imdb.com/title/tt0086421/&lt;/a&gt;\n\n &lt;a href=&quot;\nhttp://bayimg.com/kaccGAaGk&quot; rel=&quot;nofollow&quot; target=&quot;_NEW&quot;&gt;\nhttp://bayimg.com/kaccGAaGk&lt;/a&gt;\n\n &lt;a href=&quot;\nhttp://bayimg.com/KACchaAGk&quot; rel=&quot;nofollow&quot; target=&quot;_NEW&quot;&gt;\nhttp://bayimg.com/KACchaAGk&lt;/a&gt;\n\n &lt;a href=&quot;\nhttp://bayimg.com/kacCIAaGk&quot; rel=&quot;nofollow&quot; target=&quot;_NEW&quot;&gt;\nhttp://bayimg.com/kacCIAaGk&lt;/a&gt;\n\n\n\n\n\nGeneral\nComplete name                  : 5rFF-trelet.avi\nFormat                         : AVI\nFormat/Info                    : Audio Video Interleave\nFile size                      : 1.37 GiB\nDuration                       : 1h 48mn\nOverall bit rate               : 1 808 Kbps\nWriting application            : VirtualDubMod 1.5.10.2 (build 2540/release)\nWriting library                : VirtualDubMod build 2540/release\n\nVideo\nID                             : 0\nFormat                         : MPEG-4 Visual\nFormat profile                 : Advanced Simple@L5\nFormat settings, BVOP          : Yes\nFormat settings, QPel          : No\nFormat settings, GMC           : No warppoints\nFormat settings, Matrix        : Default (H.263)\nCodec ID                       : XVID\nCodec ID/Hint                  : XviD\nDuration                       : 1h 48mn\nBit rate                       : 1 606 Kbps\nWidth                          : 720 pixels\nHeight                         : 544 pixels\nDisplay aspect ratio           : 4:3\nFrame rate                     : 25.000 fps\nColor space                    : YUV\nChroma subsampling             : 4:2:0\nBit depth                      : 8 bits\nScan type                      : Progressive\nCompression mode               : Lossy\nBits/(Pixel*Frame)             : 0.164\nStream size                    : 1.21 GiB (89%)\nWriting library                : XviD 64\n\nAudio\nID                             : 1\nFormat                         : AC-3\nFormat/Info                    : Audio Coding 3\nMode extension                 : CM (complete main)\nFormat settings, Endianness    : Big\nCodec ID                       : 2000\nDuration                       : 1h 48mn\nBit rate mode                  : Constant\nBit rate                       : 192 Kbps\nChannel(s)                     : 2 channels\nChannel positions              : Front: L R\nSampling rate                  : 48.0 KHz\nBit depth                      : 16 bits\nCompression mode               : Lossy\nStream size                    : 149 MiB (11%)\nAlignment                      : Split accross interleaves\nInterleave, duration           : 40 ms (1.00 video frame)\nInterleave, preload duration   : 500 ms","torrent":{"xt":"urn:btih:b4587400f308c197e2fbe99100ef61f76da6867e","amp;dn":"Te.rongyos.elet.1984.DVDRip.XviD.5rFF","amp;tr":["udp%3A%2F%2Ftracker.openbittorrent.com%3A80","udp%3A%2F%2Fopen.demonii.com%3A1337","udp%3A%2F%2Ftracker.coppersurfer.tk%3A6969","udp%3A%2F%2Fexodus.desync.com%3A6969"],"infoHash":"b4587400f308c197e2fbe99100ef61f76da6867e","infoHashBuffer":{"type":"Buffer","data":[180,88,116,0,243,8,193,151,226,251,233,145,0,239,97,247,109,166,134,126]},"announce":[],"urlList":[]}}